<svg xmlns="http://www.w3.org/2000/svg" width="12.353" height="22.848" viewBox="0 0 12.353 22.848">
    <defs>
        <style>
            .cls-1{fill:#fff}
        </style>
    </defs>
    <g id="facebook-logo" transform="translate(162.923 26)">
        <path id="Path_1" d="M33.965 0H31c-3.329 0-5.48 2.207-5.48 5.623v2.593h-2.977a.466.466 0 0 0-.466.466v3.756a.466.466 0 0 0 .466.466h2.979v9.479a.466.466 0 0 0 .466.466h3.887a.466.466 0 0 0 .466-.466V12.9h3.483a.466.466 0 0 0 .466-.466V8.682a.466.466 0 0 0-.466-.466h-3.483v-2.2c0-1.056.252-1.593 1.628-1.593h2a.466.466 0 0 0 .466-.466V.471a.466.466 0 0 0-.47-.471z" class="cls-1" data-name="Path 1" transform="translate(-185 -26)"/>
    </g>
</svg>
