<svg xmlns="http://www.w3.org/2000/svg" id="instagram-social-network-logo-of-photo-camera" width="23.166" height="23.166" viewBox="0 0 23.166 23.166">
    <defs>
        <style>
            .cls-1{fill:#fff}
        </style>
    </defs>
    <path id="Path_2" d="M2.973 0h17.219a2.9 2.9 0 0 1 2.973 2.973v17.22a2.9 2.9 0 0 1-2.973 2.973H2.973A2.9 2.9 0 0 1 0 20.193V2.973A2.9 2.9 0 0 1 2.973 0zm13.9 2.574a1.045 1.045 0 0 0-1.043 1.043v2.5a1.046 1.046 0 0 0 1.043 1.043h2.618a1.046 1.046 0 0 0 1.043-1.043v-2.5a1.046 1.046 0 0 0-1.043-1.043zM20.548 9.8h-2.039a6.776 6.776 0 0 1 .3 1.987 7.092 7.092 0 0 1-7.2 6.977 7.091 7.091 0 0 1-7.2-6.977A6.764 6.764 0 0 1 4.7 9.8H2.574v9.786a.924.924 0 0 0 .926.914h16.127a.924.924 0 0 0 .921-.921V9.8zM11.6 7.025a4.582 4.582 0 0 0-4.652 4.508 4.582 4.582 0 0 0 4.652 4.508 4.582 4.582 0 0 0 4.653-4.508A4.582 4.582 0 0 0 11.6 7.025z" class="cls-1" data-name="Path 2"/>
</svg>
