<svg xmlns="http://www.w3.org/2000/svg" width="21841.32" height="7004.528" viewBox="0 0 21841.32 7004.528">
  <g id="_1773056455312" transform="translate(-864.63 -7468.569)">
    <path id="Path_1" data-name="Path 1" d="M4070.809,7896.07v262.246H4188.9c67.471,0,116.361-10.316,147.3-30.629q46.526-30.469,46.449-97.07c0-46.137-16.141-80.227-48.5-101.875s-83.295-32.672-153.127-32.672ZM3891.15,7782.465h321.84c116.359,0,204.141,19.289,264.055,57.469,59.518,38.184,89.436,95.023,89.436,169.344q0,91.875-48.182,152.1c-31.965,39.992-78.1,66.129-137.7,79.2l185.879,378.289H4366.512l-165.566-349H4070.809v349H3891.15v-836.41Zm304.678-202.41c-86.443,0-166.982,15.113-241.7,45.82q-111.478,45.938-201.309,135.254c-61.645,63.3-109.119,133.523-142.184,211.3a609.179,609.179,0,0,0-49.914,242.641q0,126,47.158,239.961,47.473,114.557,136.986,204.773c60.619,61.246,128.721,108.094,205.48,141.078q114.668,49.131,235.475,49.281,130.611,0,248.152-47.16,117.146-47.473,210.676-139.109a608.359,608.359,0,0,0,138.012-199.578c31.965-75.738,48.182-155.254,48.182-239.254q0-133.682-45.82-248.859-45.935-115.617-135.254-206.82c-62.668-61.961-132.186-108.8-208.945-141.16-76.76-32.043-158.637-48.184-245-48.184Zm-1.1-111.48q154.465,0,291.215,56.371,136.28,56.918,243.664,166.668,103.8,104.748,158.4,238.465,54.205,133.8,54.32,283.973,0,154.348-56.055,289.484-55.74,135.217-162.809,239.254-109,105.814-245.08,162.418a736.279,736.279,0,0,1-283.658,56.445,719.586,719.586,0,0,1-285-58.18q-136.752-57.75-243.662-166.906-105.812-106.869-161.395-240.91-55.266-134.268-55.424-281.609a729.584,729.584,0,0,1,58.1-286.336q57.864-138.4,166.982-247.129c69.91-70.223,148.717-122.891,236.5-158.715q131.555-53.145,283.895-53.3Z" transform="translate(17763.621 0.002)"/>
    <path id="Path_2" data-name="Path 2" d="M2511.424,8307.855v-85.5H2693.68V8986.8q0,66.961-2.835,106.914-2.716,40.031-18.579,93.922-15.825,53.965-45.584,96.758-107.818,148.793-314.283,148.8-171.116,0-279.013-105.1-107.936-105.105-100.457-276.176h176.666q-3.662,94.828,52.118,156.191,55.857,61.418,150.686,61.414,198.984,0,199.025-249.258v-102.27q-91.167,111.6-234.374,111.555-174.9,0-277.123-122.734-102.387-122.818-102.347-293.895,0-185.994,110.692-298.535,110.653-112.547,270.589-112.5,143.246,0,232.563,105.969Zm-210.2,57.707q-96.718,0-157.22,72.512-60.346,72.627-60.385,178.551,0,104.162,60.385,176.746,60.463,72.5,157.22,72.508,92.938,0,157.141-65.1,64.242-65.068,64.164-182.262,0-120.926-64.164-186.9Q2394.237,8365.6,2301.22,8365.563Z" transform="translate(7099.277 5039.906)"/>
    <path id="Path_3" data-name="Path 3" d="M2061.288,9413.426l301.292-571.02L2014.76,8204.48h219.494l230.673,440.793,219.416-440.793h204.615L2265.9,9413.426Z" transform="translate(7904.633 5057.786)"/>
    <path id="Path_4" data-name="Path 4" d="M2324.125,8914.207v517.086H2141.869V8222.348h182.256v85.5q89.279-105.926,232.484-105.969,160.017,0,270.59,112.5,110.769,112.547,110.691,294.84,0,187.887-115.336,304.125-115.257,116.2-264.055,116.2-139.585,0-234.373-115.34Zm210.2-548.66q-93.056,0-157.219,66.051-64.125,66.012-64.164,186.9,0,117.146,64.164,182.262,64.122,65.063,157.219,65.1,96.6,0,157.143-72.508,60.463-72.5,60.461-176.746,0-105.926-60.461-178.551Q2631,8365.549,2534.328,8365.547Z" transform="translate(8778.238 5039.921)"/>
    <path id="Path_5" data-name="Path 5" d="M2768.191,8356.281l-150.686,79.988q-25.978-70.74-87.389-70.7a73.337,73.337,0,0,0-40.937,12.125q-18.542,12.041-18.582,38.105a60.2,60.2,0,0,0,1.891,14.875,51.058,51.058,0,0,0,5.59,13.934,92.1,92.1,0,0,0,7.4,11.176,64.228,64.228,0,0,0,11.18,10.234c4.959,3.7,8.975,6.773,12.045,9.289a118.168,118.168,0,0,0,14.879,9.285c6.852,3.7,12.125,6.219,15.824,7.406,3.7,1.258,9.605,4.09,17.715,8.426,8.029,4.328,13.936,7.086,17.635,8.34q102.384,48.416,148.795,79.988,94.828,68.854,94.869,174.855,0,111.6-82.744,188.8-82.784,77.115-203.67,77.148a248.824,248.824,0,0,1-45.584-4.641q-25.154-4.605-71.645-20.469-46.409-15.82-88.332-59.516-41.807-43.693-65.975-108.8l152.5-70.7q14.88,42.867,47.395,71.641,32.593,28.816,80.934,28.813c27.238,0,49.283-7.719,65.973-23.227q25.151-23.256,25.113-60.461A80.973,80.973,0,0,0,2617.5,8734.8c-9.84-14.246-19.523-24.172-28.812-29.758s-22.6-12.758-39.994-21.414q-145.02-68.848-156.2-76.289-93.053-61.412-93.057-171.082,0-107.93,69.754-171.156,69.791-63.176,175.8-63.223,156.237,0,223.2,154.391Z" transform="translate(9593.351 5039.902)"/>
    <path id="Path_6" data-name="Path 6" d="M2352.13,8204.48h182.254v448.281q0,98.484,33.539,141.316,40.86,53.971,118.959,53.926,78.179,0,119.115-53.926,33.419-42.75,33.459-141.316V8204.48h182.256v453.871q0,172.881-83.687,256.648-96.718,96.727-254.844,96.68-152.458,0-247.363-96.68-83.73-83.725-83.687-256.648Z" transform="translate(10223.314 5057.786)"/>
    <path id="Path_7" data-name="Path 7" d="M2466.48,9005.375V8222.348h182.254v72.508q76.286-92.941,193.436-92.977,135.806,0,202.725,115.34,79.951-115.371,232.484-115.34,152.575,0,223.2,122.738,40.978,72.627,40.939,197.211v483.547H3359.258v-431.5q0-102.27-16.768-139.5-25.98-68.848-104.158-68.812-66.955,0-107.855,57.633-35.312,50.191-35.35,178.637v403.559H2912.871v-431.5q0-102.27-16.768-139.5-25.98-68.848-104.156-68.812-66.958,0-107.857,57.633-35.312,50.191-35.35,178.637v403.559H2466.486Z" transform="translate(11009.222 5039.921)"/>
    <path id="Path_8" data-name="Path 8" d="M2846.754,8914.207v517.086H2664.5V8222.348h182.254v85.5q89.279-105.926,232.564-105.969,159.9,0,270.59,112.5,110.654,112.547,110.691,294.84,0,187.887-115.336,304.125-115.257,116.2-264.133,116.2-139.468,0-234.375-115.34Zm210.205-548.66q-93.056,0-157.141,66.051-64.242,66.012-64.164,186.9,0,117.146,64.164,182.262,64.122,65.063,157.141,65.1,96.718,0,157.219-72.508,60.349-72.5,60.385-176.746,0-105.926-60.385-178.551Q3153.6,8365.549,3056.959,8365.547Z" transform="translate(12370.177 5039.921)"/>
    <path id="Path_9" data-name="Path 9" d="M2789.721,9005.375V8222.348h182.254v70.7q76.169-91.16,184.145-91.168,74.4,0,146.906,46.531l-81.8,165.48q-53.971-37.2-102.348-37.156-76.169,0-115.336,61.332-31.646,50.3-31.57,161.859v405.449Z" transform="translate(13230.79 5039.921)"/>
    <path id="Path_10" data-name="Path 10" d="M2982.932,8318.156q119.979-116.314,298.537-116.277,178.556,0,298.535,116.277,119.982,116.2,119.982,296.648,0,178.553-119.982,296.645t-298.535,118.09q-178.559,0-298.537-118.09T2862.949,8614.8Q2862.949,8434.354,2982.932,8318.156ZM3112.2,8798.008q63.3,67.9,169.266,67.863,106.046,0,169.266-67.863,63.179-67.9,63.219-181.391,0-124.582-67.865-187.848-67.9-63.176-164.619-63.223-96.718,0-164.621,63.223-67.9,63.3-67.863,187.848Q3048.984,8730.107,3112.2,8798.008Z" transform="translate(13734.088 5039.921)"/>
    <path id="Path_11" data-name="Path 11" d="M3601.936,8795.785V8131.711h182.254V9487.645H3601.936v-81.793q-91.169,105.926-234.375,105.965-172.884,0-276.178-122.734-103.213-122.818-103.215-293.895,0-185.994,110.613-298.535,110.654-112.547,270.668-112.5,146.906,0,232.484,111.637Zm-210.205,52.039q-96.715,0-157.141,72.512-60.463,72.627-60.463,178.551,0,104.162,60.463,176.746,60.466,72.5,157.141,72.508,93.056,0,157.221-65.1,64.122-65.068,64.162-182.262,0-120.926-64.162-186.9Q3484.709,8847.863,3391.73,8847.824Z" transform="translate(14594.701 4557.643)"/>
    <path id="Path_12" data-name="Path 12" d="M3118.58,8204.48h182.256v448.281q0,98.484,33.459,141.316,40.978,53.971,119.039,53.926,78.176,0,119.037-53.926,33.539-42.75,33.459-141.316V8204.48h182.334v453.871q0,172.881-83.687,256.648-96.715,96.727-254.844,96.68-152.575,0-247.363-96.68-83.728-83.725-83.687-256.648V8204.48Z" transform="translate(15490.986 5057.786)"/>
    <path id="Path_13" data-name="Path 13" d="M3874.953,8257.688V8497.57q-76.169-132.023-226.895-132.023-94.828,0-164.619,66.922-69.791,67.072-69.754,182.336,0,106.049,64.162,178.551,64.242,72.5,168.32,72.508,68.848,0,130.217-35.348,61.406-35.314,98.566-98.566v239.969q-100.377,57.627-215.713,57.629-202.764,0-319.951-119.035-111.6-115.26-111.557-293.895,0-187.77,126.438-308.77,111.6-105.926,299.482-105.969,128.367,0,221.3,55.816Z" transform="translate(16241.153 5039.921)"/>
    <path id="Path_14" data-name="Path 14" d="M3721.221,8621.887H3581.713v615.656H3399.459V8621.887H3323.17V8454.516h76.289V8168.1h182.254v286.418h139.508Z" transform="translate(16897.096 4807.753)"/>
    <path id="Path_15" data-name="Path 15" d="M3890.51,8356.281l-150.686,79.988q-25.98-70.74-87.389-70.7a73.164,73.164,0,0,0-40.939,12.125c-12.439,8.027-18.58,20.707-18.58,38.105a64.132,64.132,0,0,0,1.811,14.875,56.7,56.7,0,0,0,5.59,13.934,92.028,92.028,0,0,0,7.479,11.176,60.524,60.524,0,0,0,11.1,10.234c4.959,3.7,9.053,6.773,12.125,9.289a107.479,107.479,0,0,0,14.879,9.285c6.85,3.7,12.125,6.219,15.824,7.406,3.7,1.258,9.605,4.09,17.635,8.426,8.109,4.328,13.936,7.086,17.715,8.34q102.267,48.416,148.795,79.988,94.828,68.854,94.867,174.855,0,111.6-82.822,188.8-82.664,77.115-203.67,77.148a247.389,247.389,0,0,1-45.506-4.641q-25.151-4.605-71.643-20.469-46.529-15.82-88.334-59.516-41.921-43.693-66.051-108.8l152.5-70.7q14.88,42.867,47.475,71.641,32.476,28.816,80.854,28.813,40.978,0,66.053-23.227,25.151-23.256,25.113-60.461a80.973,80.973,0,0,0-14.879-47.391q-14.88-21.369-28.814-29.758c-9.289-5.59-22.672-12.758-39.994-21.414q-145.017-68.848-156.275-76.289-92.941-61.412-92.979-171.082,0-107.93,69.754-171.156,69.791-63.176,175.8-63.223,156.234,0,223.2,154.391Z" transform="translate(17306.301 5039.902)"/>
    <path id="Path_16" data-name="Path 16" d="M4409.241,7904.449v3145.191H1264.13Z" transform="translate(2745.69 2995.734)" fill-rule="evenodd"/>
    <path id="Path_17" data-name="Path 17" d="M4409.241,7504.953v3145.188H1264.13Z" transform="translate(2745.69 250.039)" fill-rule="evenodd"/>
    <path id="Path_18" data-name="Path 18" d="M4009.821,7904.449v3145.191H864.63Z" transform="translate(0 2995.734)" fill-rule="evenodd"/>
    <path id="Path_19" data-name="Path 19" d="M4009.821,7504.953v3145.188H864.63Z" transform="translate(0 250.039)" fill-rule="evenodd"/>
    <path id="Path_20" data-name="Path 20" d="M4770.7,7653.852c987.486,0,1788.074,800.508,1788.074,1787.992,0,987.566-800.588,1788.074-1788.076,1788.074S2982.619,10429.41,2982.619,9441.844c0-987.488,800.586-1787.992,1788.074-1787.992Zm0,766.18c564.324,0,1021.814,457.488,1021.814,1021.813S5335.02,10463.734,4770.7,10463.734s-1021.812-457.57-1021.812-1021.891S4206.373,8420.031,4770.7,8420.031Z" transform="translate(14556.556 1273.403)" fill-rule="evenodd"/>
    <path id="Path_21" data-name="Path 21" d="M3944.528,8420.035c-414.033,0-770.59,246.34-931.119,600.461H4809.042C4660.011,8666.375,4329.038,8420.035,3944.528,8420.035ZM2953.655,9692.2c111.715,443.316,512.912,771.535,990.873,771.535,326.564,0,617.307-153.2,804.365-391.516l705.875,327.113c-317.117,499.293-874.982,830.582-1510.242,830.582-987.486,0-1788-800.508-1788-1788.074,0-987.488,800.508-1787.992,1788-1787.992,916.867,0,1660.143,800.508,1660.143,1787.992a1927.522,1927.522,0,0,1-16.3,250.355H2953.655Z" transform="translate(8878.988 1273.399)" fill-rule="evenodd"/>
    <rect id="Rectangle_2" data-name="Rectangle 2" width="1534.569" height="671.787" transform="translate(8936.078 8951.346)"/>
    <path id="Path_22" data-name="Path 22" d="M2632.581,8802.637V7525.82H1889.859v2792.566h742.722V8802.637Z" transform="translate(7046.219 393.475)"/>
    <path id="Path_23" data-name="Path 23" d="M1889.938,7880.527l-.079,6.852q0,371.4,137.538,691.152,137.578,319.8,381.674,557,244.216,237.363,570.858,374.824Q3303.5,9646.637,3671,9647.9V8987.684q-223.072-1.295-416-85.891-196.033-85.969-333.571-233.824-137.459-147.855-213.2-350.734-75.579-202.887-75.657-436.707H1889.938Z" transform="translate(7046.219 2831.335)"/>
    <path id="Path_24" data-name="Path 24" d="M4758.338,8289.816c-179.814-402.379-477.721-630.93-928.047-630.93-277.6,0-530.469,77.152-737.682,265.078-209.34,189.738-291.531,438.676-291.531,716.352,0,308.613,131.555,544.8,388.525,714.613,50.385,33.3,133.285,69.047,188.475,96.051,158.244,77.234,317.432,152.891,476.936,228.629,57.787,28.813,116.754,58.809,172.256,92.031,51.41,30.941,95.342,84.16,129.193,132.891,44.637,64.164,67.154,135.73,67.154,213.906,0,106.754-34.955,199.891-113.684,272.793-81.955,75.895-185.4,104.629-295.545,104.629-134.705,0-257.361-38.262-358.844-128.09-91.561-81.172-157.771-180.055-200.756-293.812l-615.34,285.23c62.51,162.887,150.215,314.363,271.377,440.953,103.762,108.328,226.342,200.523,369.549,249.176,96.521,32.828,202.8,68.1,303.182,86.68,62.668,11.648,127.225,19.6,191.074,19.6,327.273,0,616.52-100.535,856.641-324.516,229.965-214.461,347.35-477.41,347.35-792.086,0-312.156-147.3-549.758-396.631-730.594-190.443-129.512-423.873-241.3-632.029-339.711-25.588-8.738-53.693-23.934-77.391-36.766-21.887-11.734-48.812-26.535-72.43-34.406-23.777-7.949-48.732-21.176-70.7-33.145-22.123-12.043-46.766-25.9-66.525-41.648-16.768-13.461-33.934-26.449-51.1-39.363-18.186-13.621-37.08-29.445-51.33-47.238a397.745,397.745,0,0,1-33.539-50.148,255.177,255.177,0,0,1-25.822-64.637,281.733,281.733,0,0,1-8.5-68.414c0-74.086,25.035-138.324,88.49-179.5,56.291-36.605,118.408-54.793,185.564-54.793,196.74,0,315.148,121.637,384.035,293.734l607.623-322.551Z" transform="translate(12198.016 1308.043)"/>
  </g>
</svg>
