<svg xmlns="http://www.w3.org/2000/svg" width="26.698" height="23.245" viewBox="0 0 26.698 23.245">
    <defs>
        <style>
            .cls-1{fill:#fff}
        </style>
    </defs>
    <g id="XMLID_496_" transform="translate(0 -19.401)">
        <path id="XMLID_497_" d="M.472 30.547l6.152 2.3L9 40.5a.724.724 0 0 0 1.15.346l3.429-2.8a1.023 1.023 0 0 1 1.247-.035l6.185 4.49a.725.725 0 0 0 1.136-.438l4.531-21.794a.725.725 0 0 0-.971-.824L.464 29.19a.726.726 0 0 0 .008 1.357zm8.149 1.073l12.023-7.4a.209.209 0 0 1 .253.332l-9.923 9.218a2.057 2.057 0 0 0-.637 1.23L10 37.506a.311.311 0 0 1-.607.044l-1.3-4.568a1.211 1.211 0 0 1 .528-1.362z" class="cls-1"/>
    </g>
</svg>
